<?xml version="1.0" encoding="UTF-8" standalone="no"?>
<!DOCTYPE svg PUBLIC "-//W3C//DTD SVG 1.1//EN" "http://www.w3.org/Graphics/SVG/1.1/DTD/svg11.dtd">
<svg width="100%" height="100%" viewBox="0 0 34 70" version="1.1" xmlns="http://www.w3.org/2000/svg" xmlns:xlink="http://www.w3.org/1999/xlink" xml:space="preserve" xmlns:serif="http://www.serif.com/" style="fill-rule:evenodd;clip-rule:evenodd;stroke-linejoin:round;stroke-miterlimit:2;">
    <g transform="matrix(1,0,0,1,-181.647,-36.4163)">
        <g id="Acoustic-Guitar" serif:id="Acoustic Guitar" transform="matrix(1.78823,0,0,1.78823,2.91276,-57.6448)">
            <g id="Neck" transform="matrix(1,0,0,0.479519,-12.7663,31.6472)">
                <path d="M125.954,100.108L117.954,100.108L117.954,124.316C117.954,124.498 117.988,124.672 118.05,124.8C118.111,124.928 118.195,125 118.282,125C119.577,125 124.331,125 125.626,125C125.713,125 125.796,124.928 125.858,124.8C125.919,124.672 125.954,124.498 125.954,124.316C125.954,120.315 125.954,100.108 125.954,100.108Z" style="fill:rgb(17,17,17);"/>
            </g>
            <g id="Headstock" transform="matrix(1,0,0,1,0,0.196331)">
                <path d="M105.187,79.651C105.187,79.651 104.121,78.283 103.636,77.66C103.483,77.464 103.398,77.223 103.394,76.975C103.347,74.19 103.06,57.1 103.02,54.746C103.017,54.578 103.092,54.417 103.222,54.311C103.885,53.824 106.07,52.404 109.187,52.404L109.232,52.404C112.973,52.42 115.359,54.477 115.359,54.477L115,77.358L113.187,79.651L105.187,79.651Z" style="fill:rgb(17,17,17);"/>
            </g>
            <g id="Tuning-Keys" serif:id="Tuning Keys" transform="matrix(1,0,0,1,0.361231,13.3812)">
                <g id="Key" transform="matrix(1.06557,0,2.36604e-16,1.88288,-16.9734,-81.4621)">
                    <path d="M111.845,75.322L111.845,75.478C111.845,75.576 111.806,75.67 111.736,75.739C111.667,75.809 111.573,75.848 111.475,75.848C111.067,75.848 110.416,75.848 110.008,75.848C109.91,75.848 109.816,75.809 109.747,75.739C109.677,75.67 109.638,75.576 109.638,75.478C109.638,75.246 109.638,74.948 109.638,74.716C109.638,74.618 109.677,74.524 109.747,74.455C109.816,74.385 109.91,74.346 110.008,74.346C110.416,74.346 111.067,74.346 111.475,74.346C111.573,74.346 111.667,74.385 111.736,74.455C111.806,74.524 111.845,74.618 111.845,74.716L111.845,74.872L112.613,74.872L112.613,75.322L111.845,75.322Z" style="fill:rgb(17,17,17);"/>
                </g>
                <g id="Key1" serif:id="Key" transform="matrix(1.06557,0,2.36604e-16,1.88288,-17.099,-88.0899)">
                    <path d="M111.845,75.322L111.845,75.478C111.845,75.576 111.806,75.67 111.736,75.739C111.667,75.809 111.573,75.848 111.475,75.848C111.067,75.848 110.416,75.848 110.008,75.848C109.91,75.848 109.816,75.809 109.747,75.739C109.677,75.67 109.638,75.576 109.638,75.478C109.638,75.246 109.638,74.948 109.638,74.716C109.638,74.618 109.677,74.524 109.747,74.455C109.816,74.385 109.91,74.346 110.008,74.346C110.416,74.346 111.067,74.346 111.475,74.346C111.573,74.346 111.667,74.385 111.736,74.455C111.806,74.524 111.845,74.618 111.845,74.716L111.845,74.872L112.613,74.872L112.613,75.322L111.845,75.322Z" style="fill:rgb(17,17,17);"/>
                </g>
                <g id="Key2" serif:id="Key" transform="matrix(1.06557,0,2.36604e-16,1.88288,-17.2381,-94.9077)">
                    <path d="M111.845,75.322L111.845,75.478C111.845,75.576 111.806,75.67 111.736,75.739C111.667,75.809 111.573,75.848 111.475,75.848C111.067,75.848 110.416,75.848 110.008,75.848C109.91,75.848 109.816,75.809 109.747,75.739C109.677,75.67 109.638,75.576 109.638,75.478C109.638,75.246 109.638,74.948 109.638,74.716C109.638,74.618 109.677,74.524 109.747,74.455C109.816,74.385 109.91,74.346 110.008,74.346C110.416,74.346 111.067,74.346 111.475,74.346C111.573,74.346 111.667,74.385 111.736,74.455C111.806,74.524 111.845,74.618 111.845,74.716L111.845,74.872L112.613,74.872L112.613,75.322L111.845,75.322Z" style="fill:rgb(17,17,17);"/>
                </g>
                <g id="Key3" serif:id="Key" transform="matrix(-1.06557,0,-2.36604e-16,1.88288,234.635,-81.4621)">
                    <path d="M111.845,75.322L111.845,75.478C111.845,75.576 111.806,75.67 111.736,75.739C111.667,75.809 111.573,75.848 111.475,75.848C111.067,75.848 110.416,75.848 110.008,75.848C109.91,75.848 109.816,75.809 109.747,75.739C109.677,75.67 109.638,75.576 109.638,75.478C109.638,75.246 109.638,74.948 109.638,74.716C109.638,74.618 109.677,74.524 109.747,74.455C109.816,74.385 109.91,74.346 110.008,74.346C110.416,74.346 111.067,74.346 111.475,74.346C111.573,74.346 111.667,74.385 111.736,74.455C111.806,74.524 111.845,74.618 111.845,74.716L111.845,74.872L112.613,74.872L112.613,75.322L111.845,75.322Z" style="fill:rgb(17,17,17);"/>
                </g>
                <g id="Key4" serif:id="Key" transform="matrix(-1.06557,0,-2.36604e-16,1.88288,234.761,-88.0899)">
                    <path d="M111.845,75.322L111.845,75.478C111.845,75.576 111.806,75.67 111.736,75.739C111.667,75.809 111.573,75.848 111.475,75.848C111.067,75.848 110.416,75.848 110.008,75.848C109.91,75.848 109.816,75.809 109.747,75.739C109.677,75.67 109.638,75.576 109.638,75.478C109.638,75.246 109.638,74.948 109.638,74.716C109.638,74.618 109.677,74.524 109.747,74.455C109.816,74.385 109.91,74.346 110.008,74.346C110.416,74.346 111.067,74.346 111.475,74.346C111.573,74.346 111.667,74.385 111.736,74.455C111.806,74.524 111.845,74.618 111.845,74.716L111.845,74.872L112.613,74.872L112.613,75.322L111.845,75.322Z" style="fill:rgb(17,17,17);"/>
                </g>
                <g id="Key5" serif:id="Key" transform="matrix(-1.06557,0,-2.36604e-16,1.88288,234.9,-94.9077)">
                    <path d="M111.845,75.322L111.845,75.478C111.845,75.576 111.806,75.67 111.736,75.739C111.667,75.809 111.573,75.848 111.475,75.848C111.067,75.848 110.416,75.848 110.008,75.848C109.91,75.848 109.816,75.809 109.747,75.739C109.677,75.67 109.638,75.576 109.638,75.478C109.638,75.246 109.638,74.948 109.638,74.716C109.638,74.618 109.677,74.524 109.747,74.455C109.816,74.385 109.91,74.346 110.008,74.346C110.416,74.346 111.067,74.346 111.475,74.346C111.573,74.346 111.667,74.385 111.736,74.455C111.806,74.524 111.845,74.618 111.845,74.716L111.845,74.872L112.613,74.872L112.613,75.322L111.845,75.322Z" style="fill:rgb(17,17,17);"/>
                </g>
            </g>
        </g>
    </g>
</svg>
