<?xml version="1.0" encoding="UTF-8" standalone="no"?>
<!DOCTYPE svg PUBLIC "-//W3C//DTD SVG 1.1//EN" "http://www.w3.org/Graphics/SVG/1.1/DTD/svg11.dtd">
<svg width="100%" height="100%" viewBox="0 0 62 72" version="1.1" xmlns="http://www.w3.org/2000/svg" xmlns:xlink="http://www.w3.org/1999/xlink" xml:space="preserve" xmlns:serif="http://www.serif.com/" style="fill-rule:evenodd;clip-rule:evenodd;stroke-linecap:round;stroke-linejoin:round;stroke-miterlimit:1.5;">
    <g transform="matrix(1,0,0,1,-145.009,-141.605)">
        <g id="Amp" transform="matrix(0.734317,0,0,0.734317,27.787,71.196)">
            <g id="Stands" transform="matrix(1.36181,0,0,1.36181,31.0291,-51.2486)">
                <path d="M107.418,175.655L100.824,175.655L100.824,178.351C100.824,178.578 100.914,178.795 101.074,178.955C101.234,179.115 101.451,179.205 101.678,179.205C102.942,179.205 105.3,179.205 106.564,179.205C106.791,179.205 107.008,179.115 107.168,178.955C107.328,178.795 107.418,178.578 107.418,178.351C107.418,177.301 107.418,175.655 107.418,175.655ZM149.914,175.655L143.32,175.655L143.32,178.351C143.32,178.578 143.41,178.795 143.57,178.955C143.73,179.115 143.947,179.205 144.174,179.205C145.438,179.205 147.796,179.205 149.06,179.205C149.287,179.205 149.504,179.115 149.664,178.955C149.824,178.795 149.914,178.578 149.914,178.351C149.914,177.301 149.914,175.655 149.914,175.655Z"/>
            </g>
            <g id="Body">
                <g transform="matrix(1.41898,0,0,1.41898,24.4375,-59.4473)">
                    <path d="M154.65,117.743C154.65,117.147 154.413,116.575 153.992,116.153C153.57,115.732 152.998,115.495 152.402,115.495L97.525,115.495C96.929,115.495 96.357,115.732 95.936,116.153C95.514,116.575 95.277,117.147 95.277,117.743L95.277,172.62C95.277,173.216 95.514,173.788 95.936,174.209C96.357,174.631 96.929,174.868 97.525,174.868L152.402,174.868C152.998,174.868 153.57,174.631 153.992,174.209C154.413,173.788 154.65,173.216 154.65,172.62L154.65,117.743Z" style="fill:rgb(17,17,17);"/>
                </g>
                <g transform="matrix(1.32359,0,0,1.32359,35.468,-45.7757)">
                    <path d="M153.387,118.55C153.387,118.005 152.945,117.563 152.4,117.563C145.594,117.563 105.678,117.563 98.871,117.563C98.326,117.563 97.884,118.005 97.884,118.55C97.884,125.357 97.884,165.273 97.884,172.079C97.884,172.624 98.326,173.066 98.871,173.066C105.678,173.066 145.594,173.066 152.4,173.066C152.945,173.066 153.387,172.624 153.387,172.079L153.387,118.55Z" style="fill:none;stroke:white;stroke-width:0.64px;"/>
                </g>
                <g transform="matrix(1.40473,0,0,1.60473,27.0918,-79.9819)">
                    <path d="M145.251,118.283L103.432,118.283L103.432,123.578C103.432,123.955 103.603,124.317 103.908,124.583C104.212,124.85 104.626,125 105.057,125C111.725,125 136.957,125 143.626,125C144.057,125 144.47,124.85 144.775,124.583C145.08,124.317 145.251,123.955 145.251,123.578C145.251,121.606 145.251,118.283 145.251,118.283Z" style="fill:none;stroke:white;stroke-width:0.56px;"/>
                </g>
            </g>
            <g id="Settings">
                <g id="Lights">
                    <g transform="matrix(1.36181,0,0,1.36181,31.0291,-51.2486)">
                        <circle cx="137.853" cy="122.24" r="0.727" style="fill:white;"/>
                    </g>
                    <g transform="matrix(1.36181,0,0,1.36181,37.5554,-51.2486)">
                        <circle cx="137.853" cy="122.24" r="0.727" style="fill:white;"/>
                    </g>
                </g>
                <g id="Knobs" transform="matrix(1,0,0,1,0.935019,0)">
                    <g transform="matrix(1.36181,0,0,1.36181,32.391,-51.122)">
                        <circle cx="112.913" cy="122.147" r="1.632" style="fill:none;stroke:white;stroke-width:0.63px;"/>
                    </g>
                    <g transform="matrix(1.36181,0,0,1.36181,40.1188,-51.122)">
                        <circle cx="112.913" cy="122.147" r="1.632" style="fill:none;stroke:white;stroke-width:0.63px;"/>
                    </g>
                    <g transform="matrix(1.36181,0,0,1.36181,47.8466,-51.122)">
                        <circle cx="112.913" cy="122.147" r="1.632" style="fill:none;stroke:white;stroke-width:0.63px;"/>
                    </g>
                    <g transform="matrix(1.36181,0,0,1.36181,55.5744,-51.122)">
                        <circle cx="112.913" cy="122.147" r="1.632" style="fill:none;stroke:white;stroke-width:0.63px;"/>
                    </g>
                </g>
                <g id="On" transform="matrix(1,0,0,1,0.435779,0)">
                    <g transform="matrix(1.00635,0,0,1.00635,63.8915,-7.70358)">
                        <circle cx="112.913" cy="122.147" r="1.632" style="fill:none;stroke:white;stroke-width:0.56px;"/>
                    </g>
                    <g transform="matrix(0.557319,0,0,0.557319,100.694,47.0928)">
                        <circle cx="137.853" cy="122.24" r="0.727" style="fill:white;"/>
                    </g>
                </g>
            </g>
            <g id="Handle" transform="matrix(1.36181,0,0,1.36181,31.5211,-51.2486)">
                <g transform="matrix(1,0,0,1,0,0.5632)">
                    <path d="M125,108.832C115.557,108.832 110.796,114.322 110.796,114.322" style="fill:none;stroke:rgb(17,17,17);stroke-width:2.71px;"/>
                </g>
                <g transform="matrix(-1,0,0,1,250.016,0.5632)">
                    <path d="M125,108.832C115.557,108.832 110.796,114.322 110.796,114.322" style="fill:none;stroke:rgb(17,17,17);stroke-width:2.71px;"/>
                </g>
            </g>
        </g>
    </g>
</svg>
