<?xml version="1.0" encoding="UTF-8" standalone="no"?>
<!DOCTYPE svg PUBLIC "-//W3C//DTD SVG 1.1//EN" "http://www.w3.org/Graphics/SVG/1.1/DTD/svg11.dtd">
<svg width="100%" height="100%" viewBox="0 0 32 70" version="1.1" xmlns="http://www.w3.org/2000/svg" xmlns:xlink="http://www.w3.org/1999/xlink" xml:space="preserve" xmlns:serif="http://www.serif.com/" style="fill-rule:evenodd;clip-rule:evenodd;stroke-linejoin:round;stroke-miterlimit:2;">
    <g transform="matrix(1,0,0,1,-35.2999,-36.3249)">
        <g id="Electric-Guitar" serif:id="Electric Guitar" transform="matrix(1.78823,0,0,1.78823,-168.452,-94.2265)">
            <g id="Neck" transform="matrix(1,0,0,0.479519,0,52.1041)">
                <path d="M125.954,100.108L117.954,100.108L117.954,124.316C117.954,124.498 117.988,124.672 118.05,124.8C118.111,124.928 118.195,125 118.282,125C119.577,125 124.331,125 125.626,125C125.713,125 125.796,124.928 125.858,124.8C125.919,124.672 125.954,124.498 125.954,124.316C125.954,120.315 125.954,100.108 125.954,100.108Z" style="fill:rgb(17,17,17);"/>
            </g>
            <g id="Headstock" transform="matrix(1,0,0,1,1.42109e-14,0.205011)">
                <path d="M125.954,100.108C125.954,100.108 125.534,95.596 129.555,94.316C129.555,94.316 130.254,93.932 130.072,93.159C129.89,92.385 127.477,81.508 127.477,81.508C127.477,81.508 127.325,80.097 129.054,80.052C131.673,79.594 133.01,74.383 128.706,72.997C126.074,72.15 123.473,74.129 122.608,77.224C122.608,77.224 116.054,95.317 116.054,97.112C116.054,98.25 117.954,100.108 117.954,100.108L125.954,100.108Z" style="fill:rgb(17,17,17);"/>
            </g>
            <g id="Tuning-Keys" serif:id="Tuning Keys" transform="matrix(1,0,0,1,0,0.380734)">
                <g id="Key" transform="matrix(0.947207,0.320623,-0.320623,0.947207,40.1204,-29.8377)">
                    <path d="M111.845,75.322L111.845,75.478C111.845,75.576 111.806,75.67 111.736,75.739C111.667,75.809 111.573,75.848 111.475,75.848C111.067,75.848 110.416,75.848 110.008,75.848C109.91,75.848 109.816,75.809 109.747,75.739C109.677,75.67 109.638,75.576 109.638,75.478C109.638,75.246 109.638,74.948 109.638,74.716C109.638,74.618 109.677,74.524 109.747,74.455C109.816,74.385 109.91,74.346 110.008,74.346C110.416,74.346 111.067,74.346 111.475,74.346C111.573,74.346 111.667,74.385 111.736,74.455C111.806,74.524 111.845,74.618 111.845,74.716L111.845,74.872L112.613,74.872L112.613,75.322L111.845,75.322Z" style="fill:rgb(17,17,17);"/>
                </g>
                <g id="Key1" serif:id="Key" transform="matrix(0.947207,0.320623,-0.320623,0.947207,38.9055,-26.4545)">
                    <path d="M111.845,75.322L111.845,75.478C111.845,75.576 111.806,75.67 111.736,75.739C111.667,75.809 111.573,75.848 111.475,75.848C111.067,75.848 110.416,75.848 110.008,75.848C109.91,75.848 109.816,75.809 109.747,75.739C109.677,75.67 109.638,75.576 109.638,75.478C109.638,75.246 109.638,74.948 109.638,74.716C109.638,74.618 109.677,74.524 109.747,74.455C109.816,74.385 109.91,74.346 110.008,74.346C110.416,74.346 111.067,74.346 111.475,74.346C111.573,74.346 111.667,74.385 111.736,74.455C111.806,74.524 111.845,74.618 111.845,74.716L111.845,74.872L112.613,74.872L112.613,75.322L111.845,75.322Z" style="fill:rgb(17,17,17);"/>
                </g>
                <g id="Key2" serif:id="Key" transform="matrix(0.947207,0.320623,-0.320623,0.947207,37.6907,-23.0714)">
                    <path d="M111.845,75.322L111.845,75.478C111.845,75.576 111.806,75.67 111.736,75.739C111.667,75.809 111.573,75.848 111.475,75.848C111.067,75.848 110.416,75.848 110.008,75.848C109.91,75.848 109.816,75.809 109.747,75.739C109.677,75.67 109.638,75.576 109.638,75.478C109.638,75.246 109.638,74.948 109.638,74.716C109.638,74.618 109.677,74.524 109.747,74.455C109.816,74.385 109.91,74.346 110.008,74.346C110.416,74.346 111.067,74.346 111.475,74.346C111.573,74.346 111.667,74.385 111.736,74.455C111.806,74.524 111.845,74.618 111.845,74.716L111.845,74.872L112.613,74.872L112.613,75.322L111.845,75.322Z" style="fill:rgb(17,17,17);"/>
                </g>
                <g id="Key3" serif:id="Key" transform="matrix(0.947207,0.320623,-0.320623,0.947207,36.4758,-19.6882)">
                    <path d="M111.845,75.322L111.845,75.478C111.845,75.576 111.806,75.67 111.736,75.739C111.667,75.809 111.573,75.848 111.475,75.848C111.067,75.848 110.416,75.848 110.008,75.848C109.91,75.848 109.816,75.809 109.747,75.739C109.677,75.67 109.638,75.576 109.638,75.478C109.638,75.246 109.638,74.948 109.638,74.716C109.638,74.618 109.677,74.524 109.747,74.455C109.816,74.385 109.91,74.346 110.008,74.346C110.416,74.346 111.067,74.346 111.475,74.346C111.573,74.346 111.667,74.385 111.736,74.455C111.806,74.524 111.845,74.618 111.845,74.716L111.845,74.872L112.613,74.872L112.613,75.322L111.845,75.322Z" style="fill:rgb(17,17,17);"/>
                </g>
                <g id="Key4" serif:id="Key" transform="matrix(0.947207,0.320623,-0.320623,0.947207,35.261,-16.3051)">
                    <path d="M111.845,75.322L111.845,75.478C111.845,75.576 111.806,75.67 111.736,75.739C111.667,75.809 111.573,75.848 111.475,75.848C111.067,75.848 110.416,75.848 110.008,75.848C109.91,75.848 109.816,75.809 109.747,75.739C109.677,75.67 109.638,75.576 109.638,75.478C109.638,75.246 109.638,74.948 109.638,74.716C109.638,74.618 109.677,74.524 109.747,74.455C109.816,74.385 109.91,74.346 110.008,74.346C110.416,74.346 111.067,74.346 111.475,74.346C111.573,74.346 111.667,74.385 111.736,74.455C111.806,74.524 111.845,74.618 111.845,74.716L111.845,74.872L112.613,74.872L112.613,75.322L111.845,75.322Z" style="fill:rgb(17,17,17);"/>
                </g>
                <g id="Key5" serif:id="Key" transform="matrix(0.947207,0.320623,-0.320623,0.947207,34.3097,-12.922)">
                    <path d="M111.845,75.322L111.845,75.478C111.845,75.576 111.806,75.67 111.736,75.739C111.667,75.809 111.573,75.848 111.475,75.848C111.067,75.848 110.416,75.848 110.008,75.848C109.91,75.848 109.816,75.809 109.747,75.739C109.677,75.67 109.638,75.576 109.638,75.478C109.638,75.246 109.638,74.948 109.638,74.716C109.638,74.618 109.677,74.524 109.747,74.455C109.816,74.385 109.91,74.346 110.008,74.346C110.416,74.346 111.067,74.346 111.475,74.346C111.573,74.346 111.667,74.385 111.736,74.455C111.806,74.524 111.845,74.618 111.845,74.716L111.845,74.872L112.613,74.872L112.613,75.322L111.845,75.322Z" style="fill:rgb(17,17,17);"/>
                </g>
            </g>
        </g>
    </g>
</svg>
