<?xml version="1.0" encoding="UTF-8" standalone="no"?>
<!DOCTYPE svg PUBLIC "-//W3C//DTD SVG 1.1//EN" "http://www.w3.org/Graphics/SVG/1.1/DTD/svg11.dtd">
<svg width="100%" height="100%" viewBox="0 0 40 71" version="1.1" xmlns="http://www.w3.org/2000/svg" xmlns:xlink="http://www.w3.org/1999/xlink" xml:space="preserve" xmlns:serif="http://www.serif.com/" style="fill-rule:evenodd;clip-rule:evenodd;stroke-linecap:round;stroke-linejoin:round;stroke-miterlimit:1.5;">
    <g transform="matrix(1,0,0,1,-63.4171,-142.959)">
        <g id="Pedal" transform="matrix(0.907593,0,0,0.907593,-11.7934,47.5586)">
            <g id="Body" transform="matrix(1.17589,0,0,1.14613,-42.0819,-31.3604)">
                <path d="M142.431,122.541C142.431,121.621 142.075,120.739 141.441,120.089C140.807,119.439 139.948,119.073 139.051,119.073C132.386,119.073 117.614,119.073 110.949,119.073C110.052,119.073 109.193,119.439 108.559,120.089C107.925,120.739 107.569,121.621 107.569,122.541C107.569,134.202 107.569,171.926 107.569,183.588C107.569,184.508 107.925,185.389 108.559,186.04C109.193,186.69 110.052,187.055 110.949,187.055C117.614,187.055 132.386,187.055 139.051,187.055C139.948,187.055 140.807,186.69 141.441,186.04C142.075,185.389 142.431,184.508 142.431,183.588C142.431,171.926 142.431,134.202 142.431,122.541Z" style="fill:rgb(17,17,17);"/>
            </g>
            <g id="Switch" transform="matrix(1.10182,0,0,1.10182,-32.8225,-24.577)">
                <circle cx="125" cy="177.147" r="3.636" style="fill:white;"/>
            </g>
            <g id="Light" transform="matrix(1.10182,0,0,1.10182,-32.8225,-24.577)">
                <circle cx="125" cy="164.27" r="1.113" style="fill:white;"/>
            </g>
            <g id="Knobs">
                <g transform="matrix(0.92444,0,0,0.92444,-12.2327,2.34949)">
                    <circle cx="116.044" cy="141.031" r="5.28" style="fill:none;stroke:white;stroke-width:1.49px;"/>
                </g>
                <g transform="matrix(0.92444,0,0,0.92444,7.48977,2.34949)">
                    <circle cx="116.044" cy="141.031" r="5.28" style="fill:none;stroke:white;stroke-width:1.49px;"/>
                </g>
                <g transform="matrix(0.92444,0,0,0.92444,-12.2327,-14.436)">
                    <circle cx="116.044" cy="141.031" r="5.28" style="fill:none;stroke:white;stroke-width:1.49px;"/>
                </g>
                <g transform="matrix(0.92444,0,0,0.92444,7.48977,-14.436)">
                    <circle cx="116.044" cy="141.031" r="5.28" style="fill:none;stroke:white;stroke-width:1.49px;"/>
                </g>
            </g>
            <g id="Sides">
                <g transform="matrix(1.47058,0,0,1.10182,-71.9777,-24.577)">
                    <path d="M106.397,150.908L105.536,150.908C105.472,150.908 105.411,150.942 105.366,151.002C105.321,151.062 105.296,151.144 105.296,151.229C105.296,152.614 105.296,158.083 105.296,159.468C105.296,159.553 105.321,159.635 105.366,159.695C105.411,159.755 105.472,159.788 105.536,159.788C105.86,159.788 106.397,159.788 106.397,159.788L106.397,150.908Z" style="fill:rgb(17,17,17);"/>
                </g>
                <g transform="matrix(-1.47058,0,0,1.10182,281.754,-24.577)">
                    <path d="M106.397,150.908L105.536,150.908C105.472,150.908 105.411,150.942 105.366,151.002C105.321,151.062 105.296,151.144 105.296,151.229C105.296,152.614 105.296,158.083 105.296,159.468C105.296,159.553 105.321,159.635 105.366,159.695C105.411,159.755 105.472,159.788 105.536,159.788C105.86,159.788 106.397,159.788 106.397,159.788L106.397,150.908Z" style="fill:rgb(17,17,17);"/>
                </g>
            </g>
        </g>
    </g>
</svg>
