<?xml version="1.0" encoding="UTF-8" standalone="no"?>
<!DOCTYPE svg PUBLIC "-//W3C//DTD SVG 1.1//EN" "http://www.w3.org/Graphics/SVG/1.1/DTD/svg11.dtd">
<svg width="100%" height="100%" viewBox="0 0 510 350" version="1.1" xmlns="http://www.w3.org/2000/svg" xmlns:xlink="http://www.w3.org/1999/xlink" xml:space="preserve" xmlns:serif="http://www.serif.com/" style="fill-rule:evenodd;clip-rule:evenodd;stroke-linejoin:round;stroke-miterlimit:2;">
    <g transform="matrix(1,0,0,1,-45.45,-25.1)">
        <path d="M277.45,301.451C276.376,300.368 275.242,299.301 274.05,298.25C266.45,291.55 255.9,285.25 242.4,279.35C228.9,273.45 217.2,269.25 207.3,266.75C197.4,264.25 184.15,261.4 167.55,258.2C150.55,282 132.85,298.3 114.45,307.1C103.45,312.5 93.7,315.2 85.2,315.2C76.7,315.2 69.15,313.5 62.55,310.1C51.15,304.5 45.45,296 45.45,284.6C45.45,273.2 52.95,263.2 67.95,254.6C84.95,244.6 107.95,239.6 136.95,239.6C147.35,239.6 156.75,240.4 165.15,242C174.15,228 184.65,208.7 196.65,184.1L193.35,184.1C180.75,184.1 169.05,182 158.25,177.8C147.45,173.6 138.85,167.9 132.45,160.7C124.05,151.3 119.85,140.7 119.85,128.9C119.85,122.7 121.4,116 124.5,108.8C127.6,101.6 134.5,94.3 145.2,86.9C155.9,79.5 169.45,73.9 185.85,70.1C188.45,69.5 190.65,69.2 192.45,69.2C194.25,69.2 195.35,69.7 195.75,70.7C196.15,71.7 195.35,72.6 193.35,73.4C191.35,74.2 189.05,74.8 186.45,75.2C177.85,76.2 169.85,79.1 162.45,83.9C149.65,92.1 140.75,104.7 135.75,121.7C134.55,125.7 133.95,129.55 133.95,133.25C133.95,136.95 134.65,141.4 136.05,146.6C137.45,151.8 140.45,157.15 145.05,162.65C149.65,168.15 155.9,172 163.8,174.2C171.7,176.4 178.6,177.5 184.5,177.5C190.4,177.5 195.85,177.2 200.85,176.6L226.35,112.4C243.95,67.2 264.95,39.4 289.35,29C295.75,26.4 302,25.1 308.1,25.1C314.2,25.1 320,27.05 325.5,30.95C331,34.85 333.95,39.6 334.35,45.2C334.55,47.6 334.65,49.9 334.65,52.1C334.65,69.5 329,87.7 317.7,106.7C306.4,125.7 290.8,142.25 270.9,156.35C251,170.45 230.45,179.3 209.25,182.9C197.05,207.5 188.25,224.7 182.85,234.5L176.55,244.7C216.15,254.5 248.95,269.4 274.95,289.4C278.976,292.511 282.602,295.836 285.829,299.376C300.366,295.812 309.84,293.386 314.25,292.1C321.45,279.5 330.05,257 340.05,224.6C328.45,245 318.75,259.3 310.95,267.5C303.15,275.7 295.25,279.8 287.25,279.8C276.45,279.8 270.15,275.3 268.35,266.3C267.55,264.9 267.35,262.8 267.75,260C268.15,257.2 268.4,255.2 268.5,254C268.6,252.8 269.25,250.85 270.45,248.15C271.65,245.45 272.45,243.5 272.85,242.3C275.05,237.7 276.95,234.1 278.55,231.5C275.35,231.5 274.45,229.9 275.85,226.7L281.25,216.2C288.05,203.2 293.65,192.2 298.05,183.2C300.05,179 303.95,176.9 309.75,176.9L328.05,176.9C327.65,177.3 326.65,178.1 325.05,179.3C321.45,181.7 318.75,184.5 316.95,187.7C309.75,200.1 300.75,217.8 289.95,240.8C285.55,250.2 283.35,257.1 283.35,261.5C283.35,265.9 284.1,269 285.6,270.8C287.1,272.6 289.15,273.5 291.75,273.5C295.55,273.5 300.85,269.5 307.65,261.5C321.85,244.9 337.55,218.8 354.75,183.2C356.95,179 360.85,176.9 366.45,176.9L382.65,176.9C377.45,180.5 373.35,185.05 370.35,190.55C367.35,196.05 364.1,203.5 360.6,212.9C357.1,222.3 352.7,234.8 347.4,250.4C342.1,266 338.05,277.7 335.25,285.5C354.05,279.9 368.45,270 378.45,255.8C382.622,249.921 388.502,239.727 396.09,225.218C398.086,220.949 400.006,216.543 401.85,212C410.05,191.8 415.75,172.6 418.95,154.4C420.15,148.2 422.95,145.1 427.35,145.1C431.75,145.1 434.95,147.9 436.95,153.5C437.55,155.3 437.85,157.4 437.85,159.8C437.85,168.8 432.15,177.3 420.75,185.3C424.75,185.5 430.1,185.6 436.8,185.6C443.5,185.6 451.95,185.1 462.15,184.1C462.55,184.7 462.75,186.3 462.75,188.9C462.75,191.5 461.55,195.35 459.15,200.45C456.75,205.55 454.6,209.95 452.7,213.65C450.8,217.35 449,220.85 447.3,224.15C445.6,227.45 443.7,231.5 441.6,236.3C439.5,241.1 437.75,245.5 436.35,249.5C431.35,264.7 432.15,272.3 438.75,272.3C446.222,272.3 456.858,259.087 470.658,232.664C471.57,229.678 472.685,226.64 474,223.55C478.3,213.45 484.15,204.05 491.55,195.35C498.95,186.65 507.45,180.3 517.05,176.3C521.65,174.3 526.05,173.3 530.25,173.3C534.45,173.3 538.35,174.5 541.95,176.9C545.35,179.7 547.05,182.8 547.05,186.2C547.05,198.2 539.85,209.7 525.45,220.7C521.05,224.1 514.85,227.15 506.85,229.85C498.85,232.55 492.75,233.9 488.55,233.9C485.75,240.7 484.35,248.3 484.35,256.7C484.35,262.3 485.6,266.75 488.1,270.05C490.6,273.35 494.15,275 498.75,275C516.95,275 533.45,257.9 548.25,223.7C549.65,220.5 551.35,219.1 553.35,219.5C554.15,219.7 554.55,220.2 554.55,221C554.55,221.8 552.3,227.05 547.8,236.75C543.3,246.45 538.75,254.3 534.15,260.3C523.95,274.3 511.35,281.3 496.35,281.3C488.35,281.3 481.55,278.7 475.95,273.5C470.35,268.3 467.55,261.2 467.55,252.2C467.55,250.981 467.589,249.751 467.669,248.511C464.659,253.784 460.219,259.813 454.35,266.6C446.75,275.8 439.45,280.4 432.45,280.4C424.65,280.4 419.25,275.7 416.25,266.3C415.65,264.5 415.35,261.8 415.35,258.2C415.35,254.6 416.5,249.8 418.8,243.8C421.1,237.8 424.75,230.5 429.75,221.9C434.75,213.3 437.55,208.25 438.15,206.75C438.75,205.25 439.05,203.8 439.05,202.4C439.05,196.2 431.05,192.9 415.05,192.5L411.45,202.1C401.086,229.242 391.061,249.011 381.373,261.407C379.31,264.107 377.036,266.838 374.55,269.6C369.15,275.6 363.15,280.35 356.55,283.85C349.95,287.35 341.15,291.1 330.15,295.1C321.449,310.92 312.716,324.378 303.95,335.474C304.817,339.513 305.25,343.155 305.25,346.4C305.25,351.8 304.2,356.35 302.1,360.05C300,363.75 297.55,366.3 294.75,367.7C291.95,369.1 289.95,369.8 288.75,369.8C287.55,369.8 286.95,369.3 286.95,368.3C286.95,367.3 288.1,364.35 290.4,359.45C292.064,355.904 293.126,351.914 293.586,347.477C290.279,350.953 286.967,354.094 283.65,356.9C269.05,368.9 253.25,374.9 236.25,374.9C227.45,374.9 220.65,373.05 215.85,369.35C211.05,365.65 208.65,361.2 208.65,356C208.65,350.8 210.15,344.9 213.15,338.3C218.35,328.1 227.75,319.9 241.35,313.7C250.643,309.327 262.676,305.244 277.45,301.451ZM283.453,308.511C264.916,313.661 252.582,317.591 246.45,320.3C233.65,325.9 224.45,334.2 218.85,345.2C216.65,349.6 215.55,353.65 215.55,357.35C215.55,361.05 216.95,363.9 219.75,365.9C222.55,367.9 226.05,368.9 230.25,368.9C241.85,368.9 254.25,362.95 267.45,351.05C276.177,343.183 284.204,334.944 291.532,326.333C290.998,324.369 290.37,322.358 289.65,320.3C288.215,316.2 286.15,312.271 283.453,308.511ZM298.267,318.063C299.621,316.324 300.949,314.569 302.25,312.8L308.85,301.7C302.613,303.325 296.812,304.865 291.449,306.318C294.102,310.031 296.375,313.945 298.267,318.063ZM155.85,256.4C146.05,254.2 135.95,253.1 125.55,253.1C115.15,253.1 104.45,254.6 93.45,257.6C70.45,263.6 56.95,272.1 52.95,283.1C52.15,285.1 51.75,287 51.75,288.8C51.75,294 54.6,298.25 60.3,301.55C66,304.85 72.25,306.5 79.05,306.5C88.45,306.5 98.65,303.9 109.65,298.7C126.25,290.7 141.65,276.6 155.85,256.4ZM538.95,185.9C538.95,181.9 537.35,179.9 534.15,179.9C528.55,179.9 520.05,186.8 508.65,200.6C501.85,209 495.85,218.4 490.65,228.8C494.05,228.8 499,227.6 505.5,225.2C512,222.8 517.65,219.6 522.45,215.6C533.45,206.2 538.95,196.3 538.95,185.9ZM322.05,52.4C322.05,44.8 318.55,41 311.55,41C301.35,41 288.95,49.9 274.35,67.7C262.95,81.9 252,99.05 241.5,119.15C231,139.25 221.65,157.8 213.45,174.8C241.25,168.6 266.3,153.35 288.6,129.05C310.9,104.75 322.05,79.2 322.05,52.4Z" style="fill:white;fill-rule:nonzero;"/>
    </g>
</svg>
